<svg xmlns="http://www.w3.org/2000/svg" viewBox="0 0 1736 2000" width="2000" height="2000"><defs><linearGradient id="0" x1="-2296.37" y1="4570.2" x2="2563.56" y2="-696.45" gradientUnits="userSpaceOnUse"><stop stop-color="#5e003f"/><stop offset=".52" stop-color="#c04372"/><stop offset=".56" stop-color="#cd5770"/><stop offset=".62" stop-color="#df736e"/><stop offset=".7" stop-color="#ed886c"/><stop offset=".78" stop-color="#f7986b"/><stop offset=".87" stop-color="#fda16a"/><stop offset="1" stop-color="#ffa46a"/></linearGradient><linearGradient id="1" x1="351.31" y1="2409.74" x2="1865.51" y2="86.97" gradientUnits="userSpaceOnUse"><stop stop-color="#5e003f"/><stop offset=".48" stop-color="#c15866"/><stop offset=".81" stop-color="#eb8b69"/><stop offset="1" stop-color="#ffa46a"/></linearGradient></defs><path d="M343,1069.7L571.51,899.57,773.5,1028v230.91l152.82,146.52-0.07,68.73L779,1611.48H654.55Zm722.07,404.63-0.3-69.17,152.3-146.22V1028l199.82-130,228.07,171.7-310,540.21H1212.18ZM848.45,1028L774.1,834.22h442.06L1143.31,1028l21.51,216.52-170.59.37-168.56.3Zm145.78-246.8L574.13,781l78.1-347.3h682l82.3,347.75Zm0-780.71L132,500.11V1500l862.23,499.44,1,0.52,868.82-500V500.11L995.28,0Z" transform="translate(-132)" fill="url(#0)"/><path d="M1069,1474.33l-0.3-69.17L1221,1258.94V1028l199.82-130,228.07,171.7-310,540.21H1216.08ZM998.2,0.52V433.71h339.9l82.37,347.75-422.27-.22v53h221.85L1147.2,1028l21.59,216.52-170.59.37v754.55l1,0.52L1868,1500V500.11L999.18,0Z" transform="translate(-132)" fill="url(#1)"/></svg>