<svg xmlns="http://www.w3.org/2000/svg" xmlns:xlink="http://www.w3.org/1999/xlink" viewBox="0 0 2000 1728" width="2000" height="2000"><defs><linearGradient id="8" x1="1585.21" x2="1008.34" xlink:href="#7"/><linearGradient id="5" x1="1625.11" y1="1074.19" x2="1119.5" y2="209.02" gradientUnits="userSpaceOnUse"><stop stop-color="#6ddfe5"/><stop offset="1" stop-color="#199ab8"/></linearGradient><linearGradient id="7" x1="1273.52" x2="408.21" gradientUnits="userSpaceOnUse"><stop stop-color="#b5b8c3"/><stop offset="1" stop-color="#fefdfd"/></linearGradient><linearGradient id="6" x1="402.06" x2="1266.49" gradientUnits="userSpaceOnUse"><stop stop-color="#a1a6b3"/><stop offset="1" stop-color="#e5e6e7"/></linearGradient><linearGradient id="4" x1="366.75" y1="1080.61" x2="874.27" y2="221.29" gradientUnits="userSpaceOnUse"><stop stop-color="#f7e97e"/><stop offset="1" stop-color="#fdbf2c"/></linearGradient><linearGradient id="3" x1="500" x2="1500" gradientUnits="userSpaceOnUse"><stop stop-color="#c41886"/><stop offset="1" stop-color="#5a3575"/></linearGradient><linearGradient id="0" x1="866.51" y1="1512.77" x2="377.83" y2="647.74" gradientUnits="userSpaceOnUse"><stop stop-color="#f93e3d"/><stop offset="1" stop-color="#fd9e29"/></linearGradient><linearGradient id="2" x1="471.54" x2="1541.45" gradientUnits="userSpaceOnUse"><stop stop-color="#c1b362"/><stop offset="1" stop-color="#6b9744"/></linearGradient><linearGradient id="1" x1="1133.49" y1="1493.28" x2="1627.97" y2="656.03" gradientUnits="userSpaceOnUse"><stop stop-color="#0958a5"/><stop offset="1" stop-color="#1cb4c7"/></linearGradient></defs><path fill="url(#0)" d="m0 864h1000l-500 864-500-864"/><path fill="url(#1)" d="m1000 864h1000l-500 864-500-864"/><path fill="url(#2)" d="m499.63 0h1000l-499.26 863.96-500.74-863.96"/><path fill="url(#3)" d="m1500 1728h-1000l499.63-863.98 500.37 863.98"/><path fill="url(#4)" d="M1000 864 0 864 499.63.02 1000 864z"/><path fill="url(#5)" d="M2000 864 1000 864 1499.63.02 2000 864z"/><path fill="url(#6)" d="m1000 864h-604.3l303.01 521h602.64l-301.35-521"/><path fill="url(#7)" d="m1000 864.44l-604.3-.44 300.82-524.68 605.63 2.19-302.15 522.93"/><path fill="url(#8)" d="M1000 864.44 1302.15 341.51 1604.3 864.44 1301.35 1385 1000 864.44z"/></svg>